<?xml version="1.0" encoding="UTF-8" standalone="no"?>
<!-- Created with Inkscape (http://www.inkscape.org/) -->

<svg
   width="16.365mm"
   height="15.293mm"
   viewBox="0 0 16.365 15.293"
   version="1.1"
   id="svg1"
   xml:space="preserve"
   xmlns="http://www.w3.org/2000/svg"
   xmlns:svg="http://www.w3.org/2000/svg"><defs
     id="defs1" /><g
     id="layer1"
     transform="translate(-40.20052,-110.27438)"><rect
       style="fill:#009966;fill-opacity:1;stroke:none;stroke-width:0.105687;stroke-linecap:butt;stroke-linejoin:bevel;stroke-dasharray:none;stroke-dashoffset:0;stroke-opacity:1;paint-order:normal"
       id="rect14"
       width="16.365"
       height="15.293"
       x="40.20052"
       y="110.27438"
       ry="2" /><g
       style="fill:#ffffff;fill-opacity:0.979849"
       id="g14"
       transform="matrix(0.96531821,0,0,0.73525605,36.456513,111.53847)"><g
         style="fill:none"
         id="g2"
         transform="matrix(0.83664275,0,0,0.95634863,-2.3746625,-3.09093)"><path
           d="m 9.71069,18.2929 c 0.39051,0.3905 1.02371,0.3905 1.41421,0 l 4.8874,-4.8923 c 0.7804,-0.7811 0.7801,-2.0469 -6e-4,-2.8277 L 11.1213,5.68254 c -0.3905,-0.39052 -1.0237,-0.39052 -1.41422,0 -0.39053,0.39053 -0.39053,1.02369 0,1.41422 l 4.18562,4.18564 c 0.3906,0.3905 0.3906,1.0237 0,1.4142 l -4.18201,4.1821 c -0.39053,0.3905 -0.39053,1.0236 0,1.4142 z"
           fill="#0f0f0f"
           id="path1-8"
           style="fill:#ffffff;fill-opacity:1" /></g></g><rect
       style="fill:#ffffff;fill-opacity:0.979849;stroke:none;stroke-width:1.56702;stroke-linecap:butt;stroke-linejoin:bevel;stroke-dasharray:none;stroke-dashoffset:0;stroke-opacity:1;paint-order:stroke fill markers"
       id="rect15"
       width="7.7091126"
       height="1.4984007"
       x="47.397953"
       y="120.77201"
       ry="0.74920034"
       rx="0.60274529" /></g></svg>
