<?xml version="1.0" encoding="utf-8"?>
<!-- Generated by Mocodo 4.3.2 -->
<svg width="1103" height="558" viewBox="0 0 1103 558" xmlns="http://www.w3.org/2000/svg">
<rect x="0" y="0" width="1103" height="558" fill="#f5f5f5" stroke="none" stroke-width="0"/>

<!-- Association POSSEDE1 -->
<g>
	<line x1="67" y1="186" x2="67" y2="51" stroke="#bf812d" stroke-width="2"/>
	<line x1="316" y1="186" x2="67" y2="51" stroke="#bf812d" stroke-width="2"/>
	<g>
		<path d="M90 26 a14 14 90 0 1 14 14 V51 h-74 V40 a14 14 90 0 1 14 -14" fill="#dfc27d" stroke="#dfc27d" stroke-width="0"/>
		<path d="M104 51 v11 a14 14 90 0 1 -14 14 H44 a14 14 90 0 1 -14 -14 V51 H74" fill="#f6e8c3" stroke="#f6e8c3" stroke-width="0"/>
		<rect x="30" y="26" width="74" height="50" fill="none" rx="14" stroke="#bf812d" stroke-width="2"/>
		<line x1="30" y1="51" x2="104" y2="51" stroke="#bf812d" stroke-width="1"/>
		<text x="38" y="43.75" fill="#000000" font-family="Verdana" font-size="12">POSSEDE</text>
	</g>
	<text x="72" y="136" fill="#01665e" font-family="Verdana" font-size="12">1,1</text>
	<text x="230" y="166.79" fill="#01665e" font-family="Verdana" font-size="12">0,N</text>
</g>

<!-- Association POSSEDE -->
<g>
	<line x1="316" y1="186" x2="316" y2="51" stroke="#bf812d" stroke-width="2"/>
	<line x1="194" y1="51" x2="316" y2="51" stroke="#bf812d" stroke-width="2"/>
	<g>
		<path d="M339 26 a14 14 90 0 1 14 14 V51 h-74 V40 a14 14 90 0 1 14 -14" fill="#dfc27d" stroke="#dfc27d" stroke-width="0"/>
		<path d="M353 51 v11 a14 14 90 0 1 -14 14 H293 a14 14 90 0 1 -14 -14 V51 H74" fill="#f6e8c3" stroke="#f6e8c3" stroke-width="0"/>
		<rect x="279" y="26" width="74" height="50" fill="none" rx="14" stroke="#bf812d" stroke-width="2"/>
		<line x1="279" y1="51" x2="353" y2="51" stroke="#bf812d" stroke-width="1"/>
		<text x="287" y="43.75" fill="#000000" font-family="Verdana" font-size="12">POSSEDE</text>
	</g>
	<text x="321" y="102" fill="#01665e" font-family="Verdana" font-size="12">0,N</text>
	<text x="241" y="68" fill="#01665e" font-family="Verdana" font-size="12">0,N</text>
</g>

<!-- Association POSSEDE3 -->
<g>
	<line x1="316" y1="186" x2="503" y2="51" stroke="#bf812d" stroke-width="2"/>
	<line x1="681" y1="51" x2="503" y2="51" stroke="#bf812d" stroke-width="2"/>
	<g>
		<path d="M526 26 a14 14 90 0 1 14 14 V51 h-74 V40 a14 14 90 0 1 14 -14" fill="#dfc27d" stroke="#dfc27d" stroke-width="0"/>
		<path d="M540 51 v11 a14 14 90 0 1 -14 14 H480 a14 14 90 0 1 -14 -14 V51 H74" fill="#f6e8c3" stroke="#f6e8c3" stroke-width="0"/>
		<rect x="466" y="26" width="74" height="50" fill="none" rx="14" stroke="#bf812d" stroke-width="2"/>
		<line x1="466" y1="51" x2="540" y2="51" stroke="#bf812d" stroke-width="1"/>
		<text x="474" y="43.75" fill="#000000" font-family="Verdana" font-size="12">POSSEDE</text>
	</g>
	<text x="380" y="154.93" fill="#01665e" font-family="Verdana" font-size="12">1,1</text>
	<text x="605" y="68" fill="#01665e" font-family="Verdana" font-size="12">0,N</text>
</g>

<!-- Association CREER -->
<g>
	<line x1="316" y1="186" x2="194" y2="186" stroke="#bf812d" stroke-width="2"/>
	<line x1="194" y1="363" x2="194" y2="186" stroke="#bf812d" stroke-width="2"/>
	<g>
		<path d="M208 161 a14 14 90 0 1 14 14 V186 h-56 V175 a14 14 90 0 1 14 -14" fill="#dfc27d" stroke="#dfc27d" stroke-width="0"/>
		<path d="M222 186 v11 a14 14 90 0 1 -14 14 H180 a14 14 90 0 1 -14 -14 V186 H56" fill="#f6e8c3" stroke="#f6e8c3" stroke-width="0"/>
		<rect x="166" y="161" width="56" height="50" fill="none" rx="14" stroke="#bf812d" stroke-width="2"/>
		<line x1="166" y1="186" x2="222" y2="186" stroke="#bf812d" stroke-width="1"/>
		<text x="174" y="178.75" fill="#000000" font-family="Verdana" font-size="12">CREER</text>
	</g>
	<text x="231" y="203" fill="#01665e" font-family="Verdana" font-size="12">1,1</text>
	<text x="199" y="279" fill="#01665e" font-family="Verdana" font-size="12">0,N</text>
</g>

<!-- Association POSSEDE9 -->
<g>
	<line x1="316" y1="186" x2="503" y2="186" stroke="#bf812d" stroke-width="2"/>
	<line x1="681" y1="186" x2="503" y2="186" stroke="#bf812d" stroke-width="2"/>
	<g>
		<path d="M526 161 a14 14 90 0 1 14 14 V186 h-74 V175 a14 14 90 0 1 14 -14" fill="#dfc27d" stroke="#dfc27d" stroke-width="0"/>
		<path d="M540 186 v11 a14 14 90 0 1 -14 14 H480 a14 14 90 0 1 -14 -14 V186 H74" fill="#f6e8c3" stroke="#f6e8c3" stroke-width="0"/>
		<rect x="466" y="161" width="74" height="50" fill="none" rx="14" stroke="#bf812d" stroke-width="2"/>
		<line x1="466" y1="186" x2="540" y2="186" stroke="#bf812d" stroke-width="1"/>
		<text x="474" y="178.75" fill="#000000" font-family="Verdana" font-size="12">POSSEDE</text>
	</g>
	<text x="380" y="203" fill="#01665e" font-family="Verdana" font-size="12">1,1</text>
	<text x="613" y="203" fill="#01665e" font-family="Verdana" font-size="12">0,N</text>
</g>

<!-- Association CREER2 -->
<g>
	<line x1="67" y1="186" x2="67" y2="363" stroke="#bf812d" stroke-width="2"/>
	<line x1="194" y1="363" x2="67" y2="363" stroke="#bf812d" stroke-width="2"/>
	<g>
		<path d="M81 338 a14 14 90 0 1 14 14 V363 h-56 V352 a14 14 90 0 1 14 -14" fill="#dfc27d" stroke="#dfc27d" stroke-width="0"/>
		<path d="M95 363 v11 a14 14 90 0 1 -14 14 H53 a14 14 90 0 1 -14 -14 V363 H56" fill="#f6e8c3" stroke="#f6e8c3" stroke-width="0"/>
		<rect x="39" y="338" width="56" height="50" fill="none" rx="14" stroke="#bf812d" stroke-width="2"/>
		<line x1="39" y1="363" x2="95" y2="363" stroke="#bf812d" stroke-width="1"/>
		<text x="47" y="355.75" fill="#000000" font-family="Verdana" font-size="12">CREER</text>
	</g>
	<text x="72" y="245" fill="#01665e" font-family="Verdana" font-size="12">1,1</text>
	<text x="114" y="380" fill="#01665e" font-family="Verdana" font-size="12">0,N</text>
</g>

<!-- Association POSSEDE5 -->
<g>
	<line x1="316" y1="186" x2="316" y2="363" stroke="#bf812d" stroke-width="2"/>
	<line x1="503" y1="498" x2="316" y2="363" stroke="#bf812d" stroke-width="2"/>
	<g>
		<path d="M339 338 a14 14 90 0 1 14 14 V363 h-74 V352 a14 14 90 0 1 14 -14" fill="#dfc27d" stroke="#dfc27d" stroke-width="0"/>
		<path d="M353 363 v11 a14 14 90 0 1 -14 14 H293 a14 14 90 0 1 -14 -14 V363 H74" fill="#f6e8c3" stroke="#f6e8c3" stroke-width="0"/>
		<rect x="279" y="338" width="74" height="50" fill="none" rx="14" stroke="#bf812d" stroke-width="2"/>
		<line x1="279" y1="363" x2="353" y2="363" stroke="#bf812d" stroke-width="1"/>
		<text x="287" y="355.75" fill="#000000" font-family="Verdana" font-size="12">POSSEDE</text>
	</g>
	<text x="289" y="279" fill="#01665e" font-family="Verdana" font-size="12">0,N</text>
	<text x="431.88" y="439" fill="#01665e" font-family="Verdana" font-size="12">1,1</text>
</g>

<!-- Association APPARTIENT -->
<g>
	<line x1="316" y1="186" x2="503" y2="363" stroke="#bf812d" stroke-width="2"/>
	<line x1="681" y1="363" x2="503" y2="363" stroke="#bf812d" stroke-width="2"/>
	<g>
		<path d="M535 338 a14 14 90 0 1 14 14 V363 h-92 V352 a14 14 90 0 1 14 -14" fill="#dfc27d" stroke="#dfc27d" stroke-width="0"/>
		<path d="M549 363 v11 a14 14 90 0 1 -14 14 H471 a14 14 90 0 1 -14 -14 V363 H92" fill="#f6e8c3" stroke="#f6e8c3" stroke-width="0"/>
		<rect x="457" y="338" width="92" height="50" fill="none" rx="14" stroke="#bf812d" stroke-width="2"/>
		<line x1="457" y1="363" x2="549" y2="363" stroke="#bf812d" stroke-width="1"/>
		<text x="465" y="355.75" fill="#000000" font-family="Verdana" font-size="12">APPARTIENT</text>
	</g>
	<text x="380" y="240.64" fill="#01665e" font-family="Verdana" font-size="12">0,N</text>
	<text x="600" y="380" fill="#01665e" font-family="Verdana" font-size="12">1,1</text>
</g>

<!-- Association POSSEDE2 -->
<g>
	<line x1="681" y1="363" x2="864" y2="363" stroke="#bf812d" stroke-width="2"/>
	<line x1="1047" y1="363" x2="864" y2="363" stroke="#bf812d" stroke-width="2"/>
	<g>
		<path d="M887 338 a14 14 90 0 1 14 14 V363 h-74 V352 a14 14 90 0 1 14 -14" fill="#dfc27d" stroke="#dfc27d" stroke-width="0"/>
		<path d="M901 363 v11 a14 14 90 0 1 -14 14 H841 a14 14 90 0 1 -14 -14 V363 H74" fill="#f6e8c3" stroke="#f6e8c3" stroke-width="0"/>
		<rect x="827" y="338" width="74" height="50" fill="none" rx="14" stroke="#bf812d" stroke-width="2"/>
		<line x1="827" y1="363" x2="901" y2="363" stroke="#bf812d" stroke-width="1"/>
		<text x="835" y="355.75" fill="#000000" font-family="Verdana" font-size="12">POSSEDE</text>
	</g>
	<text x="741" y="380" fill="#01665e" font-family="Verdana" font-size="12">0,N</text>
	<text x="974" y="380" fill="#01665e" font-family="Verdana" font-size="12">1,1</text>
</g>

<!-- Association POSSEDE4 -->
<g>
	<line x1="194" y1="363" x2="194" y2="498" stroke="#bf812d" stroke-width="2"/>
	<line x1="67" y1="498" x2="194" y2="498" stroke="#bf812d" stroke-width="2"/>
	<g>
		<path d="M217 473 a14 14 90 0 1 14 14 V498 h-74 V487 a14 14 90 0 1 14 -14" fill="#dfc27d" stroke="#dfc27d" stroke-width="0"/>
		<path d="M231 498 v11 a14 14 90 0 1 -14 14 H171 a14 14 90 0 1 -14 -14 V498 H74" fill="#f6e8c3" stroke="#f6e8c3" stroke-width="0"/>
		<rect x="157" y="473" width="74" height="50" fill="none" rx="14" stroke="#bf812d" stroke-width="2"/>
		<line x1="157" y1="498" x2="231" y2="498" stroke="#bf812d" stroke-width="1"/>
		<text x="165" y="490.75" fill="#000000" font-family="Verdana" font-size="12">POSSEDE</text>
	</g>
	<text x="168" y="456" fill="#01665e" font-family="Verdana" font-size="12">1,1</text>
	<text x="130" y="515" fill="#01665e" font-family="Verdana" font-size="12">0,N</text>
</g>

<!-- Association APPARTIENT2 -->
<g>
	<line x1="194" y1="363" x2="316" y2="498" stroke="#bf812d" stroke-width="2"/>
	<line x1="503" y1="498" x2="316" y2="498" stroke="#bf812d" stroke-width="2"/>
	<g>
		<path d="M348 473 a14 14 90 0 1 14 14 V498 h-92 V487 a14 14 90 0 1 14 -14" fill="#dfc27d" stroke="#dfc27d" stroke-width="0"/>
		<path d="M362 498 v11 a14 14 90 0 1 -14 14 H284 a14 14 90 0 1 -14 -14 V498 H92" fill="#f6e8c3" stroke="#f6e8c3" stroke-width="0"/>
		<rect x="270" y="473" width="92" height="50" fill="none" rx="14" stroke="#bf812d" stroke-width="2"/>
		<line x1="270" y1="498" x2="362" y2="498" stroke="#bf812d" stroke-width="1"/>
		<text x="278" y="490.75" fill="#000000" font-family="Verdana" font-size="12">APPARTIENT</text>
	</g>
	<text x="252" y="420.21" fill="#01665e" font-family="Verdana" font-size="12">0,N</text>
	<text x="368" y="515" fill="#01665e" font-family="Verdana" font-size="12">1,1</text>
</g>

<!-- Association POSSEDE6 -->
<g>
	<line x1="503" y1="498" x2="681" y2="498" stroke="#bf812d" stroke-width="2"/>
	<line x1="864" y1="498" x2="681" y2="498" stroke="#bf812d" stroke-width="2"/>
	<g>
		<path d="M704 473 a14 14 90 0 1 14 14 V498 h-74 V487 a14 14 90 0 1 14 -14" fill="#dfc27d" stroke="#dfc27d" stroke-width="0"/>
		<path d="M718 498 v11 a14 14 90 0 1 -14 14 H658 a14 14 90 0 1 -14 -14 V498 H74" fill="#f6e8c3" stroke="#f6e8c3" stroke-width="0"/>
		<rect x="644" y="473" width="74" height="50" fill="none" rx="14" stroke="#bf812d" stroke-width="2"/>
		<line x1="644" y1="498" x2="718" y2="498" stroke="#bf812d" stroke-width="1"/>
		<text x="652" y="490.75" fill="#000000" font-family="Verdana" font-size="12">POSSEDE</text>
	</g>
	<text x="617" y="515" fill="#01665e" font-family="Verdana" font-size="12">1,N</text>
	<text x="724" y="515" fill="#01665e" font-family="Verdana" font-size="12">1,1</text>
</g>

<!-- Association POSSEDE8 -->
<g>
	<line x1="1047" y1="363" x2="1047" y2="498" stroke="#bf812d" stroke-width="2"/>
	<line x1="864" y1="498" x2="1047" y2="498" stroke="#bf812d" stroke-width="2"/>
	<g>
		<path d="M1070 473 a14 14 90 0 1 14 14 V498 h-74 V487 a14 14 90 0 1 14 -14" fill="#dfc27d" stroke="#dfc27d" stroke-width="0"/>
		<path d="M1084 498 v11 a14 14 90 0 1 -14 14 H1024 a14 14 90 0 1 -14 -14 V498 H74" fill="#f6e8c3" stroke="#f6e8c3" stroke-width="0"/>
		<rect x="1010" y="473" width="74" height="50" fill="none" rx="14" stroke="#bf812d" stroke-width="2"/>
		<line x1="1010" y1="498" x2="1084" y2="498" stroke="#bf812d" stroke-width="1"/>
		<text x="1018" y="490.75" fill="#000000" font-family="Verdana" font-size="12">POSSEDE</text>
	</g>
	<text x="1052" y="422" fill="#01665e" font-family="Verdana" font-size="12">0,N</text>
	<text x="983" y="515" fill="#01665e" font-family="Verdana" font-size="12">1,1</text>
</g>

<!-- Entity THEME -->
<g>
	<g>
		<rect x="152" y="17" width="84" height="25" fill="#80cdc1" stroke="none" stroke-width="0" opacity="1"/>
		<rect x="152" y="42" width="84" height="43" fill="#c7eae5" stroke="none" stroke-width="0" opacity="1"/>
		<rect x="152" y="17" width="84" height="68" fill="none" stroke="#35978f" stroke-width="2" opacity="1"/>
		<line x1="152" y1="42" x2="236" y2="42" stroke="#35978f" stroke-width="1"/>
	</g>
	<text x="173" y="34.75" fill="#000000" font-family="Verdana" font-size="12">THEME</text>
	<text x="157" y="59.8" fill="#000000" font-family="Verdana" font-size="12">num_theme</text>
	<line x1="157" y1="62" x2="231" y2="62" stroke="#000000" stroke-width="1"/>
	<text x="157" y="76.8" fill="#000000" font-family="Verdana" font-size="12">titre</text>
</g>

<!-- Entity DIFFICULTE -->
<g>
	<g>
		<rect x="632" y="9" width="98" height="25" fill="#80cdc1" stroke="none" stroke-width="0" opacity="1"/>
		<rect x="632" y="34" width="98" height="59" fill="#c7eae5" stroke="none" stroke-width="0" opacity="1"/>
		<rect x="632" y="9" width="98" height="84" fill="none" stroke="#35978f" stroke-width="2" opacity="1"/>
		<line x1="632" y1="34" x2="730" y2="34" stroke="#35978f" stroke-width="1"/>
	</g>
	<text x="645" y="26.75" fill="#000000" font-family="Verdana" font-size="12">DIFFICULTE</text>
	<text x="637" y="51.8" fill="#000000" font-family="Verdana" font-size="12">num_difficulte</text>
	<line x1="637" y1="54" x2="724" y2="54" stroke="#000000" stroke-width="1"/>
	<text x="637" y="68.8" fill="#000000" font-family="Verdana" font-size="12">niveau</text>
	<text x="637" y="85.8" fill="#000000" font-family="Verdana" font-size="12">couleur</text>
</g>

<!-- Entity NOTE -->
<g>
	<g>
		<rect x="22" y="144" width="90" height="25" fill="#80cdc1" stroke="none" stroke-width="0" opacity="1"/>
		<rect x="22" y="169" width="90" height="59" fill="#c7eae5" stroke="none" stroke-width="0" opacity="1"/>
		<rect x="22" y="144" width="90" height="84" fill="none" stroke="#35978f" stroke-width="2" opacity="1"/>
		<line x1="22" y1="169" x2="112" y2="169" stroke="#35978f" stroke-width="1"/>
	</g>
	<text x="50" y="161.75" fill="#000000" font-family="Verdana" font-size="12">NOTE</text>
	<text x="27" y="186.8" fill="#000000" font-family="Verdana" font-size="12">num_avis</text>
	<line x1="27" y1="189" x2="86" y2="189" stroke="#000000" stroke-width="1"/>
	<text x="27" y="203.8" fill="#000000" font-family="Verdana" font-size="12">commentaire</text>
	<text x="27" y="220.8" fill="#000000" font-family="Verdana" font-size="12">note</text>
</g>

<!-- Entity QUIZ -->
<g>
	<g>
		<rect x="257" y="110" width="118" height="25" fill="#80cdc1" stroke="none" stroke-width="0" opacity="1"/>
		<rect x="257" y="135" width="118" height="127" fill="#c7eae5" stroke="none" stroke-width="0" opacity="1"/>
		<rect x="257" y="110" width="118" height="152" fill="none" stroke="#35978f" stroke-width="2" opacity="1"/>
		<line x1="257" y1="135" x2="375" y2="135" stroke="#35978f" stroke-width="1"/>
	</g>
	<text x="300" y="127.75" fill="#000000" font-family="Verdana" font-size="12">QUIZ</text>
	<text x="262" y="152.8" fill="#000000" font-family="Verdana" font-size="12">num_quiz</text>
	<line x1="262" y1="155" x2="322" y2="155" stroke="#000000" stroke-width="1"/>
	<text x="262" y="169.8" fill="#000000" font-family="Verdana" font-size="12">titre</text>
	<text x="262" y="186.8" fill="#000000" font-family="Verdana" font-size="12">identification_lien</text>
	<text x="262" y="203.8" fill="#000000" font-family="Verdana" font-size="12">description</text>
	<text x="262" y="220.8" fill="#000000" font-family="Verdana" font-size="12">durée_minutes</text>
	<text x="262" y="237.8" fill="#000000" font-family="Verdana" font-size="12">lien_image</text>
	<text x="262" y="254.8" fill="#000000" font-family="Verdana" font-size="12">est_publié</text>
</g>

<!-- Entity CATEGORIE -->
<g>
	<g>
		<rect x="640" y="152" width="82" height="25" fill="#80cdc1" stroke="none" stroke-width="0" opacity="1"/>
		<rect x="640" y="177" width="82" height="43" fill="#c7eae5" stroke="none" stroke-width="0" opacity="1"/>
		<rect x="640" y="152" width="82" height="68" fill="none" stroke="#35978f" stroke-width="2" opacity="1"/>
		<line x1="640" y1="177" x2="722" y2="177" stroke="#35978f" stroke-width="1"/>
	</g>
	<text x="645" y="169.75" fill="#000000" font-family="Verdana" font-size="12">CATEGORIE</text>
	<text x="645" y="194.8" fill="#000000" font-family="Verdana" font-size="12">num_cat</text>
	<line x1="645" y1="197" x2="699" y2="197" stroke="#000000" stroke-width="1"/>
	<text x="645" y="211.8" fill="#000000" font-family="Verdana" font-size="12">titre</text>
</g>

<!-- Entity UTILISATEUR -->
<g>
	<g>
		<rect x="141" y="287" width="106" height="25" fill="#80cdc1" stroke="none" stroke-width="0" opacity="1"/>
		<rect x="141" y="312" width="106" height="127" fill="#c7eae5" stroke="none" stroke-width="0" opacity="1"/>
		<rect x="141" y="287" width="106" height="152" fill="none" stroke="#35978f" stroke-width="2" opacity="1"/>
		<line x1="141" y1="312" x2="247" y2="312" stroke="#35978f" stroke-width="1"/>
	</g>
	<text x="153" y="304.75" fill="#000000" font-family="Verdana" font-size="12">UTILISATEUR</text>
	<text x="146" y="329.8" fill="#000000" font-family="Verdana" font-size="12">num_utilisateur</text>
	<line x1="146" y1="332" x2="242" y2="332" stroke="#000000" stroke-width="1"/>
	<text x="146" y="346.8" fill="#000000" font-family="Verdana" font-size="12">nom</text>
	<text x="146" y="363.8" fill="#000000" font-family="Verdana" font-size="12">prenom</text>
	<text x="146" y="380.8" fill="#000000" font-family="Verdana" font-size="12">email</text>
	<text x="146" y="397.8" fill="#000000" font-family="Verdana" font-size="12">mot de passe</text>
	<text x="146" y="414.8" fill="#000000" font-family="Verdana" font-size="12">est_admin</text>
	<text x="146" y="431.8" fill="#000000" font-family="Verdana" font-size="12">email_vérifié_a</text>
</g>

<!-- Entity QUESTION -->
<g>
	<g>
		<rect x="626" y="312" width="110" height="25" fill="#80cdc1" stroke="none" stroke-width="0" opacity="1"/>
		<rect x="626" y="337" width="110" height="77" fill="#c7eae5" stroke="none" stroke-width="0" opacity="1"/>
		<rect x="626" y="312" width="110" height="102" fill="none" stroke="#35978f" stroke-width="2" opacity="1"/>
		<line x1="626" y1="337" x2="736" y2="337" stroke="#35978f" stroke-width="1"/>
	</g>
	<text x="648" y="329.75" fill="#000000" font-family="Verdana" font-size="12">QUESTION</text>
	<text x="631" y="354.8" fill="#000000" font-family="Verdana" font-size="12">num_question</text>
	<line x1="631" y1="357" x2="718" y2="357" stroke="#000000" stroke-width="1"/>
	<text x="631" y="371.8" fill="#000000" font-family="Verdana" font-size="12">description</text>
	<text x="631" y="388.8" fill="#000000" font-family="Verdana" font-size="12">durée_secondes</text>
	<text x="631" y="405.8" fill="#000000" font-family="Verdana" font-size="12">est_multiple</text>
</g>

<!-- Entity REPONSE -->
<g>
	<g>
		<rect x="1000" y="321" width="94" height="25" fill="#80cdc1" stroke="none" stroke-width="0" opacity="1"/>
		<rect x="1000" y="346" width="94" height="59" fill="#c7eae5" stroke="none" stroke-width="0" opacity="1"/>
		<rect x="1000" y="321" width="94" height="84" fill="none" stroke="#35978f" stroke-width="2" opacity="1"/>
		<line x1="1000" y1="346" x2="1094" y2="346" stroke="#35978f" stroke-width="1"/>
	</g>
	<text x="1018" y="338.75" fill="#000000" font-family="Verdana" font-size="12">REPONSE</text>
	<text x="1005" y="363.8" fill="#000000" font-family="Verdana" font-size="12">num_reponse</text>
	<line x1="1005" y1="366" x2="1089" y2="366" stroke="#000000" stroke-width="1"/>
	<text x="1005" y="380.8" fill="#000000" font-family="Verdana" font-size="12">description</text>
	<text x="1005" y="397.8" fill="#000000" font-family="Verdana" font-size="12">est_correct</text>
</g>

<!-- Entity SPECIALISATION -->
<g>
	<g>
		<rect x="9" y="464" width="116" height="25" fill="#80cdc1" stroke="none" stroke-width="0" opacity="1"/>
		<rect x="9" y="489" width="116" height="43" fill="#c7eae5" stroke="none" stroke-width="0" opacity="1"/>
		<rect x="9" y="464" width="116" height="68" fill="none" stroke="#35978f" stroke-width="2" opacity="1"/>
		<line x1="9" y1="489" x2="125" y2="489" stroke="#35978f" stroke-width="1"/>
	</g>
	<text x="15" y="481.75" fill="#000000" font-family="Verdana" font-size="12">SPECIALISATION</text>
	<text x="14" y="506.8" fill="#000000" font-family="Verdana" font-size="12">num_spe</text>
	<line x1="14" y1="509" x2="70" y2="509" stroke="#000000" stroke-width="1"/>
	<text x="14" y="523.8" fill="#000000" font-family="Verdana" font-size="12">nom</text>
</g>

<!-- Entity RESULTAT -->
<g>
	<g>
		<rect x="394" y="447" width="218" height="25" fill="#80cdc1" stroke="none" stroke-width="0" opacity="1"/>
		<rect x="394" y="472" width="218" height="77" fill="#c7eae5" stroke="none" stroke-width="0" opacity="1"/>
		<rect x="394" y="447" width="218" height="102" fill="none" stroke="#35978f" stroke-width="2" opacity="1"/>
		<line x1="394" y1="472" x2="612" y2="472" stroke="#35978f" stroke-width="1"/>
	</g>
	<text x="471" y="464.75" fill="#000000" font-family="Verdana" font-size="12">RESULTAT</text>
	<text x="399" y="489.8" fill="#000000" font-family="Verdana" font-size="12">num_resultat</text>
	<line x1="399" y1="492" x2="481" y2="492" stroke="#000000" stroke-width="1"/>
	<text x="399" y="506.8" fill="#000000" font-family="Verdana" font-size="12">nombre_réponses_correctes score</text>
	<text x="399" y="523.8" fill="#000000" font-family="Verdana" font-size="12">durée_quiz</text>
	<text x="399" y="540.8" fill="#000000" font-family="Verdana" font-size="12">date creation</text>
</g>

<!-- Entity RESULTAT_REPONSE_UTILISATEUR -->
<g>
	<g>
		<rect x="750" y="473" width="228" height="25" fill="#80cdc1" stroke="none" stroke-width="0" opacity="1"/>
		<rect x="750" y="498" width="228" height="25" fill="#c7eae5" stroke="none" stroke-width="0" opacity="1"/>
		<rect x="750" y="473" width="228" height="50" fill="none" stroke="#35978f" stroke-width="2" opacity="1"/>
		<line x1="750" y1="498" x2="978" y2="498" stroke="#35978f" stroke-width="1"/>
	</g>
	<text x="755" y="490.75" fill="#000000" font-family="Verdana" font-size="12">RESULTAT_REPONSE_UTILISATEUR</text>
	<text x="755" y="515.8" fill="#000000" font-family="Verdana" font-size="12">num_reponse_utilisateur</text>
	<line x1="755" y1="518" x2="906" y2="518" stroke="#000000" stroke-width="1"/>
</g>
</svg>