<?xml version="1.0" encoding="utf-8"?>
<!-- Generated by Mocodo 4.3.2 -->
<svg width="1070" height="474" viewBox="0 0 1070 474" xmlns="http://www.w3.org/2000/svg">
<rect x="0" y="0" width="1070" height="474" fill="#f5f5f5" stroke="none" stroke-width="0"/>

<!-- Association POSSEDE2 -->
<g>
	<line x1="424" y1="85" x2="306" y2="85" stroke="#bf812d" stroke-width="2"/>
	<line x1="123" y1="85" x2="306" y2="85" stroke="#bf812d" stroke-width="2"/>
	<g>
		<path d="M329 60 a14 14 90 0 1 14 14 V85 h-74 V74 a14 14 90 0 1 14 -14" fill="#dfc27d" stroke="#dfc27d" stroke-width="0"/>
		<path d="M343 85 v11 a14 14 90 0 1 -14 14 H283 a14 14 90 0 1 -14 -14 V85 H74" fill="#f6e8c3" stroke="#f6e8c3" stroke-width="0"/>
		<rect x="269" y="60" width="74" height="50" fill="none" rx="14" stroke="#bf812d" stroke-width="2"/>
		<line x1="269" y1="85" x2="343" y2="85" stroke="#bf812d" stroke-width="1"/>
		<text x="277" y="77.75" fill="#000000" font-family="Verdana" font-size="12">POSSEDE</text>
	</g>
	<text x="348" y="102" fill="#01665e" font-family="Verdana" font-size="12">0,N</text>
	<text x="175" y="102" fill="#01665e" font-family="Verdana" font-size="12">1,1</text>
</g>

<!-- Association APPARTIENT -->
<g>
	<line x1="669" y1="85" x2="551" y2="85" stroke="#bf812d" stroke-width="2"/>
	<line x1="424" y1="85" x2="551" y2="85" stroke="#bf812d" stroke-width="2"/>
	<g>
		<path d="M583 60 a14 14 90 0 1 14 14 V85 h-92 V74 a14 14 90 0 1 14 -14" fill="#dfc27d" stroke="#dfc27d" stroke-width="0"/>
		<path d="M597 85 v11 a14 14 90 0 1 -14 14 H519 a14 14 90 0 1 -14 -14 V85 H92" fill="#f6e8c3" stroke="#f6e8c3" stroke-width="0"/>
		<rect x="505" y="60" width="92" height="50" fill="none" rx="14" stroke="#bf812d" stroke-width="2"/>
		<line x1="505" y1="85" x2="597" y2="85" stroke="#bf812d" stroke-width="1"/>
		<text x="513" y="77.75" fill="#000000" font-family="Verdana" font-size="12">APPARTIENT</text>
	</g>
	<text x="602" y="77" fill="#01665e" font-family="Verdana" font-size="12">0,N</text>
	<text x="478" y="102" fill="#01665e" font-family="Verdana" font-size="12">1,1</text>
</g>

<!-- Association POSSEDE9 -->
<g>
	<line x1="669" y1="85" x2="783" y2="85" stroke="#bf812d" stroke-width="2"/>
	<line x1="894" y1="85" x2="783" y2="85" stroke="#bf812d" stroke-width="2"/>
	<g>
		<path d="M806 60 a14 14 90 0 1 14 14 V85 h-74 V74 a14 14 90 0 1 14 -14" fill="#dfc27d" stroke="#dfc27d" stroke-width="0"/>
		<path d="M820 85 v11 a14 14 90 0 1 -14 14 H760 a14 14 90 0 1 -14 -14 V85 H74" fill="#f6e8c3" stroke="#f6e8c3" stroke-width="0"/>
		<rect x="746" y="60" width="74" height="50" fill="none" rx="14" stroke="#bf812d" stroke-width="2"/>
		<line x1="746" y1="85" x2="820" y2="85" stroke="#bf812d" stroke-width="1"/>
		<text x="754" y="77.75" fill="#000000" font-family="Verdana" font-size="12">POSSEDE</text>
	</g>
	<text x="714" y="77" fill="#01665e" font-family="Verdana" font-size="12">0,N</text>
	<text x="829" y="102" fill="#01665e" font-family="Verdana" font-size="12">0,N</text>
</g>

<!-- Association POSSEDE8 -->
<g>
	<line x1="123" y1="85" x2="123" y2="271" stroke="#bf812d" stroke-width="2"/>
	<line x1="123" y1="423" x2="123" y2="271" stroke="#bf812d" stroke-width="2"/>
	<g>
		<path d="M146 246 a14 14 90 0 1 14 14 V271 h-74 V260 a14 14 90 0 1 14 -14" fill="#dfc27d" stroke="#dfc27d" stroke-width="0"/>
		<path d="M160 271 v11 a14 14 90 0 1 -14 14 H100 a14 14 90 0 1 -14 -14 V271 H74" fill="#f6e8c3" stroke="#f6e8c3" stroke-width="0"/>
		<rect x="86" y="246" width="74" height="50" fill="none" rx="14" stroke="#bf812d" stroke-width="2"/>
		<line x1="86" y1="271" x2="160" y2="271" stroke="#bf812d" stroke-width="1"/>
		<text x="94" y="263.75" fill="#000000" font-family="Verdana" font-size="12">POSSEDE</text>
	</g>
	<text x="128" y="144" fill="#01665e" font-family="Verdana" font-size="12">0,N</text>
	<text x="128" y="390" fill="#01665e" font-family="Verdana" font-size="12">1,1</text>
</g>

<!-- Association POSSEDE5 -->
<g>
	<line x1="669" y1="85" x2="424" y2="271" stroke="#bf812d" stroke-width="2"/>
	<line x1="306" y1="271" x2="424" y2="271" stroke="#bf812d" stroke-width="2"/>
	<g>
		<path d="M447 246 a14 14 90 0 1 14 14 V271 h-74 V260 a14 14 90 0 1 14 -14" fill="#dfc27d" stroke="#dfc27d" stroke-width="0"/>
		<path d="M461 271 v11 a14 14 90 0 1 -14 14 H401 a14 14 90 0 1 -14 -14 V271 H74" fill="#f6e8c3" stroke="#f6e8c3" stroke-width="0"/>
		<rect x="387" y="246" width="74" height="50" fill="none" rx="14" stroke="#bf812d" stroke-width="2"/>
		<line x1="387" y1="271" x2="461" y2="271" stroke="#bf812d" stroke-width="1"/>
		<text x="395" y="263.75" fill="#000000" font-family="Verdana" font-size="12">POSSEDE</text>
	</g>
	<text x="602" y="113.08" fill="#01665e" font-family="Verdana" font-size="12">0,N</text>
	<text x="357" y="263" fill="#01665e" font-family="Verdana" font-size="12">1,1</text>
</g>

<!-- Association CREER -->
<g>
	<line x1="669" y1="85" x2="669" y2="271" stroke="#bf812d" stroke-width="2"/>
	<line x1="551" y1="271" x2="669" y2="271" stroke="#bf812d" stroke-width="2"/>
	<g>
		<path d="M683 246 a14 14 90 0 1 14 14 V271 h-56 V260 a14 14 90 0 1 14 -14" fill="#dfc27d" stroke="#dfc27d" stroke-width="0"/>
		<path d="M697 271 v11 a14 14 90 0 1 -14 14 H655 a14 14 90 0 1 -14 -14 V271 H56" fill="#f6e8c3" stroke="#f6e8c3" stroke-width="0"/>
		<rect x="641" y="246" width="56" height="50" fill="none" rx="14" stroke="#bf812d" stroke-width="2"/>
		<line x1="641" y1="271" x2="697" y2="271" stroke="#bf812d" stroke-width="1"/>
		<text x="649" y="263.75" fill="#000000" font-family="Verdana" font-size="12">CREER</text>
	</g>
	<text x="674" y="178" fill="#01665e" font-family="Verdana" font-size="12">1,1</text>
	<text x="609" y="288" fill="#01665e" font-family="Verdana" font-size="12">0,N</text>
</g>

<!-- Association POSSEDE -->
<g>
	<line x1="669" y1="85" x2="783" y2="271" stroke="#bf812d" stroke-width="2"/>
	<line x1="894" y1="423" x2="783" y2="271" stroke="#bf812d" stroke-width="2"/>
	<g>
		<path d="M806 246 a14 14 90 0 1 14 14 V271 h-74 V260 a14 14 90 0 1 14 -14" fill="#dfc27d" stroke="#dfc27d" stroke-width="0"/>
		<path d="M820 271 v11 a14 14 90 0 1 -14 14 H760 a14 14 90 0 1 -14 -14 V271 H74" fill="#f6e8c3" stroke="#f6e8c3" stroke-width="0"/>
		<rect x="746" y="246" width="74" height="50" fill="none" rx="14" stroke="#bf812d" stroke-width="2"/>
		<line x1="746" y1="271" x2="820" y2="271" stroke="#bf812d" stroke-width="1"/>
		<text x="754" y="263.75" fill="#000000" font-family="Verdana" font-size="12">POSSEDE</text>
	</g>
	<text x="714" y="147.0" fill="#01665e" font-family="Verdana" font-size="12">0,N</text>
	<text x="868.64" y="381" fill="#01665e" font-family="Verdana" font-size="12">0,N</text>
</g>

<!-- Association POSSEDE3 -->
<g>
	<line x1="669" y1="85" x2="894" y2="271" stroke="#bf812d" stroke-width="2"/>
	<line x1="1012" y1="271" x2="894" y2="271" stroke="#bf812d" stroke-width="2"/>
	<g>
		<path d="M917 246 a14 14 90 0 1 14 14 V271 h-74 V260 a14 14 90 0 1 14 -14" fill="#dfc27d" stroke="#dfc27d" stroke-width="0"/>
		<path d="M931 271 v11 a14 14 90 0 1 -14 14 H871 a14 14 90 0 1 -14 -14 V271 H74" fill="#f6e8c3" stroke="#f6e8c3" stroke-width="0"/>
		<rect x="857" y="246" width="74" height="50" fill="none" rx="14" stroke="#bf812d" stroke-width="2"/>
		<line x1="857" y1="271" x2="931" y2="271" stroke="#bf812d" stroke-width="1"/>
		<text x="865" y="263.75" fill="#000000" font-family="Verdana" font-size="12">POSSEDE</text>
	</g>
	<text x="714" y="116.19" fill="#01665e" font-family="Verdana" font-size="12">1,1</text>
	<text x="936" y="288" fill="#01665e" font-family="Verdana" font-size="12">0,N</text>
</g>

<!-- Association POSSEDE6 -->
<g>
	<line x1="306" y1="271" x2="306" y2="423" stroke="#bf812d" stroke-width="2"/>
	<line x1="123" y1="423" x2="306" y2="423" stroke="#bf812d" stroke-width="2"/>
	<g>
		<path d="M329 398 a14 14 90 0 1 14 14 V423 h-74 V412 a14 14 90 0 1 14 -14" fill="#dfc27d" stroke="#dfc27d" stroke-width="0"/>
		<path d="M343 423 v11 a14 14 90 0 1 -14 14 H283 a14 14 90 0 1 -14 -14 V423 H74" fill="#f6e8c3" stroke="#f6e8c3" stroke-width="0"/>
		<rect x="269" y="398" width="74" height="50" fill="none" rx="14" stroke="#bf812d" stroke-width="2"/>
		<line x1="269" y1="423" x2="343" y2="423" stroke="#bf812d" stroke-width="1"/>
		<text x="277" y="415.75" fill="#000000" font-family="Verdana" font-size="12">POSSEDE</text>
	</g>
	<text x="279" y="322" fill="#01665e" font-family="Verdana" font-size="12">1,N</text>
	<text x="242" y="440" fill="#01665e" font-family="Verdana" font-size="12">1,1</text>
</g>

<!-- Association APPARTIENT2 -->
<g>
	<line x1="551" y1="271" x2="424" y2="423" stroke="#bf812d" stroke-width="2"/>
	<line x1="306" y1="271" x2="424" y2="423" stroke="#bf812d" stroke-width="2"/>
	<g>
		<path d="M456 398 a14 14 90 0 1 14 14 V423 h-92 V412 a14 14 90 0 1 14 -14" fill="#dfc27d" stroke="#dfc27d" stroke-width="0"/>
		<path d="M470 423 v11 a14 14 90 0 1 -14 14 H392 a14 14 90 0 1 -14 -14 V423 H92" fill="#f6e8c3" stroke="#f6e8c3" stroke-width="0"/>
		<rect x="378" y="398" width="92" height="50" fill="none" rx="14" stroke="#bf812d" stroke-width="2"/>
		<line x1="378" y1="423" x2="470" y2="423" stroke="#bf812d" stroke-width="1"/>
		<text x="386" y="415.75" fill="#000000" font-family="Verdana" font-size="12">APPARTIENT</text>
	</g>
	<text x="471" y="332.61" fill="#01665e" font-family="Verdana" font-size="12">0,N</text>
	<text x="312.22" y="322" fill="#01665e" font-family="Verdana" font-size="12">1,1</text>
</g>

<!-- Association CREER2 -->
<g>
	<line x1="669" y1="423" x2="551" y2="423" stroke="#bf812d" stroke-width="2"/>
	<line x1="551" y1="271" x2="551" y2="423" stroke="#bf812d" stroke-width="2"/>
	<g>
		<path d="M565 398 a14 14 90 0 1 14 14 V423 h-56 V412 a14 14 90 0 1 14 -14" fill="#dfc27d" stroke="#dfc27d" stroke-width="0"/>
		<path d="M579 423 v11 a14 14 90 0 1 -14 14 H537 a14 14 90 0 1 -14 -14 V423 H56" fill="#f6e8c3" stroke="#f6e8c3" stroke-width="0"/>
		<rect x="523" y="398" width="56" height="50" fill="none" rx="14" stroke="#bf812d" stroke-width="2"/>
		<line x1="523" y1="423" x2="579" y2="423" stroke="#bf812d" stroke-width="1"/>
		<text x="531" y="415.75" fill="#000000" font-family="Verdana" font-size="12">CREER</text>
	</g>
	<text x="598" y="440" fill="#01665e" font-family="Verdana" font-size="12">1,1</text>
	<text x="556" y="373" fill="#01665e" font-family="Verdana" font-size="12">0,N</text>
</g>

<!-- Association POSSEDE1 -->
<g>
	<line x1="669" y1="423" x2="783" y2="423" stroke="#bf812d" stroke-width="2"/>
	<line x1="669" y1="85" x2="783" y2="423" stroke="#bf812d" stroke-width="2"/>
	<g>
		<path d="M806 398 a14 14 90 0 1 14 14 V423 h-74 V412 a14 14 90 0 1 14 -14" fill="#dfc27d" stroke="#dfc27d" stroke-width="0"/>
		<path d="M820 423 v11 a14 14 90 0 1 -14 14 H760 a14 14 90 0 1 -14 -14 V423 H74" fill="#f6e8c3" stroke="#f6e8c3" stroke-width="0"/>
		<rect x="746" y="398" width="74" height="50" fill="none" rx="14" stroke="#bf812d" stroke-width="2"/>
		<line x1="746" y1="423" x2="820" y2="423" stroke="#bf812d" stroke-width="1"/>
		<text x="754" y="415.75" fill="#000000" font-family="Verdana" font-size="12">POSSEDE</text>
	</g>
	<text x="719" y="440" fill="#01665e" font-family="Verdana" font-size="12">1,1</text>
	<text x="670.26" y="178" fill="#01665e" font-family="Verdana" font-size="12">0,N</text>
</g>

<!-- Entity REPONSE -->
<g>
	<g>
		<rect x="76" y="43" width="94" height="25" fill="#80cdc1" stroke="none" stroke-width="0" opacity="1"/>
		<rect x="76" y="68" width="94" height="59" fill="#c7eae5" stroke="none" stroke-width="0" opacity="1"/>
		<rect x="76" y="43" width="94" height="84" fill="none" stroke="#35978f" stroke-width="2" opacity="1"/>
		<line x1="76" y1="68" x2="170" y2="68" stroke="#35978f" stroke-width="1"/>
	</g>
	<text x="94" y="60.75" fill="#000000" font-family="Verdana" font-size="12">REPONSE</text>
	<text x="81" y="85.8" fill="#000000" font-family="Verdana" font-size="12">num_reponse</text>
	<line x1="81" y1="88" x2="165" y2="88" stroke="#000000" stroke-width="1"/>
	<text x="81" y="102.8" fill="#000000" font-family="Verdana" font-size="12">description</text>
	<text x="81" y="119.8" fill="#000000" font-family="Verdana" font-size="12">est_correct</text>
</g>

<!-- Entity QUESTION -->
<g>
	<g>
		<rect x="375" y="43" width="98" height="25" fill="#80cdc1" stroke="none" stroke-width="0" opacity="1"/>
		<rect x="375" y="68" width="98" height="59" fill="#c7eae5" stroke="none" stroke-width="0" opacity="1"/>
		<rect x="375" y="43" width="98" height="84" fill="none" stroke="#35978f" stroke-width="2" opacity="1"/>
		<line x1="375" y1="68" x2="473" y2="68" stroke="#35978f" stroke-width="1"/>
	</g>
	<text x="391" y="60.75" fill="#000000" font-family="Verdana" font-size="12">QUESTION</text>
	<text x="380" y="85.8" fill="#000000" font-family="Verdana" font-size="12">num_question</text>
	<line x1="380" y1="88" x2="467" y2="88" stroke="#000000" stroke-width="1"/>
	<text x="380" y="102.8" fill="#000000" font-family="Verdana" font-size="12">description</text>
	<text x="380" y="119.8" fill="#000000" font-family="Verdana" font-size="12">est_multiple</text>
</g>

<!-- Entity QUIZ -->
<g>
	<g>
		<rect x="629" y="9" width="80" height="25" fill="#80cdc1" stroke="none" stroke-width="0" opacity="1"/>
		<rect x="629" y="34" width="80" height="127" fill="#c7eae5" stroke="none" stroke-width="0" opacity="1"/>
		<rect x="629" y="9" width="80" height="152" fill="none" stroke="#35978f" stroke-width="2" opacity="1"/>
		<line x1="629" y1="34" x2="709" y2="34" stroke="#35978f" stroke-width="1"/>
	</g>
	<text x="653" y="26.75" fill="#000000" font-family="Verdana" font-size="12">QUIZ</text>
	<text x="634" y="51.8" fill="#000000" font-family="Verdana" font-size="12">num_quiz</text>
	<line x1="634" y1="54" x2="694" y2="54" stroke="#000000" stroke-width="1"/>
	<text x="634" y="68.8" fill="#000000" font-family="Verdana" font-size="12">titre</text>
	<text x="634" y="85.8" fill="#000000" font-family="Verdana" font-size="12">description</text>
	<text x="634" y="102.8" fill="#000000" font-family="Verdana" font-size="12">durée</text>
	<text x="634" y="119.8" fill="#000000" font-family="Verdana" font-size="12">lien_image</text>
	<text x="634" y="136.8" fill="#000000" font-family="Verdana" font-size="12">text_image</text>
	<text x="634" y="153.8" fill="#000000" font-family="Verdana" font-size="12">est_publié</text>
</g>

<!-- Entity QUIZ_TAG -->
<g>
	<g>
		<rect x="856" y="51" width="76" height="25" fill="#80cdc1" stroke="none" stroke-width="0" opacity="1"/>
		<rect x="856" y="76" width="76" height="43" fill="#c7eae5" stroke="none" stroke-width="0" opacity="1"/>
		<rect x="856" y="51" width="76" height="68" fill="none" stroke="#35978f" stroke-width="2" opacity="1"/>
		<line x1="856" y1="76" x2="932" y2="76" stroke="#35978f" stroke-width="1"/>
	</g>
	<text x="862" y="68.75" fill="#000000" font-family="Verdana" font-size="12">QUIZ_TAG</text>
	<text x="861" y="93.8" fill="#000000" font-family="Verdana" font-size="12">num_tag</text>
	<line x1="861" y1="96" x2="916" y2="96" stroke="#000000" stroke-width="1"/>
	<text x="861" y="110.8" fill="#000000" font-family="Verdana" font-size="12">nom</text>
</g>

<!-- Entity RESULTAT -->
<g>
	<g>
		<rect x="260" y="237" width="92" height="25" fill="#80cdc1" stroke="none" stroke-width="0" opacity="1"/>
		<rect x="260" y="262" width="92" height="43" fill="#c7eae5" stroke="none" stroke-width="0" opacity="1"/>
		<rect x="260" y="237" width="92" height="68" fill="none" stroke="#35978f" stroke-width="2" opacity="1"/>
		<line x1="260" y1="262" x2="352" y2="262" stroke="#35978f" stroke-width="1"/>
	</g>
	<text x="274" y="254.75" fill="#000000" font-family="Verdana" font-size="12">RESULTAT</text>
	<text x="265" y="279.8" fill="#000000" font-family="Verdana" font-size="12">num_resultat</text>
	<line x1="265" y1="282" x2="347" y2="282" stroke="#000000" stroke-width="1"/>
	<text x="265" y="296.8" fill="#000000" font-family="Verdana" font-size="12">date creation</text>
</g>

<!-- Entity UTILISATEUR -->
<g>
	<g>
		<rect x="498" y="186" width="106" height="25" fill="#80cdc1" stroke="none" stroke-width="0" opacity="1"/>
		<rect x="498" y="211" width="106" height="145" fill="#c7eae5" stroke="none" stroke-width="0" opacity="1"/>
		<rect x="498" y="186" width="106" height="170" fill="none" stroke="#35978f" stroke-width="2" opacity="1"/>
		<line x1="498" y1="211" x2="604" y2="211" stroke="#35978f" stroke-width="1"/>
	</g>
	<text x="510" y="203.75" fill="#000000" font-family="Verdana" font-size="12">UTILISATEUR</text>
	<text x="503" y="228.8" fill="#000000" font-family="Verdana" font-size="12">num_utilisateur</text>
	<line x1="503" y1="231" x2="599" y2="231" stroke="#000000" stroke-width="1"/>
	<text x="503" y="245.8" fill="#000000" font-family="Verdana" font-size="12">nom</text>
	<text x="503" y="262.8" fill="#000000" font-family="Verdana" font-size="12">prenom</text>
	<text x="503" y="279.8" fill="#000000" font-family="Verdana" font-size="12">spécialisation</text>
	<text x="503" y="296.8" fill="#000000" font-family="Verdana" font-size="12">email</text>
	<text x="503" y="313.8" fill="#000000" font-family="Verdana" font-size="12">mot de passe</text>
	<text x="503" y="330.8" fill="#000000" font-family="Verdana" font-size="12">est_admin</text>
	<text x="503" y="347.8" fill="#000000" font-family="Verdana" font-size="12">email_vérifié_a</text>
</g>

<!-- Entity DIFFICULTE -->
<g>
	<g>
		<rect x="963" y="229" width="98" height="25" fill="#80cdc1" stroke="none" stroke-width="0" opacity="1"/>
		<rect x="963" y="254" width="98" height="59" fill="#c7eae5" stroke="none" stroke-width="0" opacity="1"/>
		<rect x="963" y="229" width="98" height="84" fill="none" stroke="#35978f" stroke-width="2" opacity="1"/>
		<line x1="963" y1="254" x2="1061" y2="254" stroke="#35978f" stroke-width="1"/>
	</g>
	<text x="976" y="246.75" fill="#000000" font-family="Verdana" font-size="12">DIFFICULTE</text>
	<text x="968" y="271.8" fill="#000000" font-family="Verdana" font-size="12">num_difficulte</text>
	<line x1="968" y1="274" x2="1055" y2="274" stroke="#000000" stroke-width="1"/>
	<text x="968" y="288.8" fill="#000000" font-family="Verdana" font-size="12">niveau</text>
	<text x="968" y="305.8" fill="#000000" font-family="Verdana" font-size="12">couleur</text>
</g>

<!-- Entity RESULTAT_REPONSE_UTILISATEUR -->
<g>
	<g>
		<rect x="9" y="398" width="228" height="25" fill="#80cdc1" stroke="none" stroke-width="0" opacity="1"/>
		<rect x="9" y="423" width="228" height="25" fill="#c7eae5" stroke="none" stroke-width="0" opacity="1"/>
		<rect x="9" y="398" width="228" height="50" fill="none" stroke="#35978f" stroke-width="2" opacity="1"/>
		<line x1="9" y1="423" x2="237" y2="423" stroke="#35978f" stroke-width="1"/>
	</g>
	<text x="14" y="415.75" fill="#000000" font-family="Verdana" font-size="12">RESULTAT_REPONSE_UTILISATEUR</text>
	<text x="14" y="440.8" fill="#000000" font-family="Verdana" font-size="12">num_reponse_utilisateur</text>
	<line x1="14" y1="443" x2="165" y2="443" stroke="#000000" stroke-width="1"/>
</g>

<!-- Entity AVIS -->
<g>
	<g>
		<rect x="624" y="381" width="90" height="25" fill="#80cdc1" stroke="none" stroke-width="0" opacity="1"/>
		<rect x="624" y="406" width="90" height="59" fill="#c7eae5" stroke="none" stroke-width="0" opacity="1"/>
		<rect x="624" y="381" width="90" height="84" fill="none" stroke="#35978f" stroke-width="2" opacity="1"/>
		<line x1="624" y1="406" x2="714" y2="406" stroke="#35978f" stroke-width="1"/>
	</g>
	<text x="654" y="398.75" fill="#000000" font-family="Verdana" font-size="12">AVIS</text>
	<text x="629" y="423.8" fill="#000000" font-family="Verdana" font-size="12">num_avis</text>
	<line x1="629" y1="426" x2="688" y2="426" stroke="#000000" stroke-width="1"/>
	<text x="629" y="440.8" fill="#000000" font-family="Verdana" font-size="12">commentaire</text>
	<text x="629" y="457.8" fill="#000000" font-family="Verdana" font-size="12">note</text>
</g>

<!-- Entity THEME -->
<g>
	<g>
		<rect x="852" y="389" width="84" height="25" fill="#80cdc1" stroke="none" stroke-width="0" opacity="1"/>
		<rect x="852" y="414" width="84" height="43" fill="#c7eae5" stroke="none" stroke-width="0" opacity="1"/>
		<rect x="852" y="389" width="84" height="68" fill="none" stroke="#35978f" stroke-width="2" opacity="1"/>
		<line x1="852" y1="414" x2="936" y2="414" stroke="#35978f" stroke-width="1"/>
	</g>
	<text x="873" y="406.75" fill="#000000" font-family="Verdana" font-size="12">THEME</text>
	<text x="857" y="431.8" fill="#000000" font-family="Verdana" font-size="12">num_theme</text>
	<line x1="857" y1="434" x2="931" y2="434" stroke="#000000" stroke-width="1"/>
	<text x="857" y="448.8" fill="#000000" font-family="Verdana" font-size="12">titre</text>
</g>
</svg>